# xmcd
#
# Track frame offsets: 
#        150
#        16353
#        32556
#        49212
#        76519
#        89719
#        106222
#        122877
#
# Disc length: 1942 seconds
#
# Revision: 0
# Processed by: cddbd v1.5.2PL0 Copyright (c) Steve Scherf et al.
# Submitted via: ExactAudioCopyFreeDBPlugin 1.0
#
DISCID=5b079408
DTITLE=[.que] - Water's Edge
DYEAR=2014
DGENRE=Ambient
TTITLE0=Departure
TTITLE1=Halfway
TTITLE2=Wave
TTITLE3=Clear Water
TTITLE4=Summer Memory
TTITLE5=After Sunset
TTITLE6=Homeward
TTITLE7=See You
EXTD=
EXTT0=
EXTT1=
EXTT2=
EXTT3=
EXTT4=
EXTT5=
EXTT6=
EXTT7=
PLAYORDER=
